<svg xmlns="http://www.w3.org/2000/svg" viewBox="0 0 38 33"><path d="M20 21.4c0 2.6.6 5.1 1.8 7.3 1.2 2.2 3.1 3.7 5.6 4.4l6.1-6.4.2-1.7c-.9-.1-1.6-.5-2.3-1.2-.7-.7-1.2-1.6-1.6-2.6-.4-1.1-.6-2.2-.6-3.4 0-1.9.4-3.8 1.3-5.8.8-2 2-3.7 3.3-5.1C35.2 5.4 36.6 4.5 38 4V3l-1.7-3c-2.8 1.1-5.4 2.7-7.9 4.6-2.5 1.9-4.5 4.3-6.1 7.2-1.6 2.8-2.3 6-2.3 9.6zm-20 0c0 2.6.6 5.1 1.8 7.3C3 30.9 4.9 32.3 7.4 33l6.1-6.4.2-1.7c-.9-.1-1.6-.5-2.3-1.2-.7-.7-1.2-1.6-1.6-2.6-.4-1.1-.6-2.2-.6-3.4 0-1.9.4-3.8 1.3-5.8.8-2 2-3.7 3.3-5.1 1.4-1.5 2.8-2.4 4.2-2.9V3l-1.7-3c-2.8 1.1-5.4 2.7-7.9 4.6-2.4 2-4.4 4.3-6 7.2-1.6 2.8-2.4 6-2.4 9.6z" /></svg>